#N canvas 676 0 681 668 10;
#X obj 88 94 openpanel;
#N canvas 0 50 450 250 (subpatch) 0;
#X array soundArray 961920 float 2;
#X coords 0 1 961920 -1 200 140 1;
#X restore 293 87 graph;
#X obj 90 44 bng 16 250 50 0 empty empty empty 0 -8 0 10 #fcfcfc #000000 #000000;
#X obj 97 209 soundfiler;
#X msg 97 152 read -resize \$1 soundArray;
#X obj 51 355 dac~;
#X obj 43 258 bng 16 250 50 0 empty empty empty 0 -8 0 10 #fcfcfc #000000 #000000;
#X obj 41 297 tabplay~ soundArray;
#X msg 164 442 open prueba.wav;
#X obj 105 440 adc~;
#X obj 109 529 writesf~;
#X msg 46 471 start;
#X msg 162 479 stop;
#X obj 97 657 dac~;
#X obj 81 556 bng 16 250 50 0 empty empty empty 0 -8 0 10 #fcfcfc #000000 #000000;
#N canvas 0 50 450 250 (subpatch) 0;
#X array waveform 100864 float 2;
#X coords 0 1 100864 -1 200 140 1;
#X restore 300 420 graph;
#X obj 247 696 soundfiler;
#X msg 246 661 read -resize prueba.wav waveform;
#X obj 87 624 tabplay~ waveform;
#X text 178 27 esta parte permite subir reproducir y graficar un audio;
#X text 115 392 Esta parte permite grabar \, guardar \, reproducir y graficar un audio;
#X floatatom 845 152 5 0 0 0 - - - 0;
#X text 849 101 este objeto hace pitch tracking!;
#X obj 845 36 adc~;
#X obj 730 330 float;
#X floatatom 730 354 5 0 0 0 - - - 0;
#X obj 730 255 bng 15 250 50 0 empty empty empty 17 7 0 10 #fcfcfc #000000 #000000;
#X floatatom 897 256 5 0 0 0 - - - 0;
#X obj 897 279 osc~;
#X floatatom 730 503 5 0 0 0 - - - 0;
#X obj 730 479 tabwrite human;
#N canvas 0 22 450 278 (subpatch) 0;
#X array human 12 float 3;
#A 0 58.1197 35.2246 60.4164 41.2569 55.8223 54.7694 54.0284 110.629 37.7715 30.5883 -1500 58.9653;
#X coords 0 128 12 0 200 140 1 0 0;
#X restore 1060 380 graph;
#X obj 832 372 f;
#X obj 863 373 + 1;
#X floatatom 832 396 5 0 0 0 - - - 0;
#X obj 832 419 mod 12;
#X floatatom 832 443 5 0 0 0 - - - 0;
#X obj 897 233 mtof;
#X text 890 149 analiza la nota del cantante;
#X obj 897 191 int;
#X floatatom 942 223 5 0 0 0 - - - 0;
#X obj 845 123 sigmund~ -hop 4096 pitch env;
#X obj 897 303 dac~;
#X obj 578 564 key;
#X obj 578 698 bng 15 250 50 0 empty empty empty 17 7 0 10 #fcfcfc #000000 #000000;
#X msg 578 739 60;
#X obj 611 995 osc~;
#X obj 613 698 bng 15 250 50 0 empty empty empty 17 7 0 10 #fcfcfc #000000 #000000;
#X obj 642 699 bng 15 250 50 0 empty empty empty 17 7 0 10 #fcfcfc #000000 #000000;
#X floatatom 598 609 5 0 0 0 - - - 0;
#X msg 613 739 62;
#X msg 645 740 64;
#X obj 611 1085 dac~;
#X obj 611 799 +;
#X obj 611 1040 *~;
#X obj 669 1015 tgl 15 0 empty empty empty 17 7 0 10 #fcfcfc #000000 #000000 0 1;
#X obj 669 1056 / 10;
#X text 676 978 agregar FM para simular el vibrato;
#X obj 718 886 osc~;
#X floatatom 718 862 5 0 0 0 - - - 0;
#X obj 611 862 mtof~;
#X obj 611 886 +~;
#X text 755 887 el rango es de -1 a +1;
#X obj 567 781 mtof;
#X floatatom 567 805 5 0 0 0 - - - 0;
#X obj 718 959 *~;
#X msg 758 927 1;
#X msg 790 927 1.2;
#X msg 824 927 0.8;
#X obj 578 653 sel 113 119 101 114 116 121 117;
#X obj 675 699 bng 16 250 50 0 empty empty empty 0 -8 0 10 #fcfcfc #000000 #000000;
#X msg 676 738 65;
#X obj 703 700 bng 16 250 50 0 empty empty empty 0 -8 0 10 #fcfcfc #000000 #000000;
#X msg 706 738 67;
#X obj 728 701 bng 16 250 50 0 empty empty empty 0 -8 0 10 #fcfcfc #000000 #000000;
#X msg 735 739 69;
#X obj 760 702 bng 16 250 50 0 empty empty empty 0 -8 0 10 #fcfcfc #000000 #000000;
#X msg 767 733 71;
#N canvas 0 50 450 250 (subpatch) 0;
#X array midiNotes 12 float 3;
#A 0 35.2246 0 0 39.3143 55.7714 21.9429 -0.7 0.242857 53.0286 0.100001 0.0285721 1;
#X coords 0 128 12 0 200 140 1 0 0;
#X restore 1124 975 graph;
#X obj 609 1148 key;
#X msg 607 1224 60;
#X msg 637 1225 62;
#X msg 669 1225 64;
#N canvas 0 50 450 250 (subpatch) 0;
#X array notas 12 float 3;
#A 0 29.2571 65 65 67 67 64 71 65 64 67 64 64;
#X coords 0 128 12 0 200 140 1 0 0;
#X restore 857 1195 graph;
#X obj 597 1364 tabwrite notas;
#X obj 614 1257 float;
#X floatatom 639 1329 5 0 0 0 - - - 0;
#X floatatom 697 1339 5 0 0 0 - - - 0;
#X obj 701 1311 mod 12;
#X floatatom 704 1283 5 0 0 0 - - - 0;
#X obj 702 1263 f;
#X obj 737 1252 + 1;
#X obj 612 1186 select 113 119 101 114 116 121 117;
#X msg 701 1222 65;
#X msg 734 1222 67;
#X msg 767 1221 69;
#X msg 801 1221 71;
#X obj 1072 1136 loadbang;
#X obj 1142 1158 metro 500;
#X obj 1167 1225 f 0;
#X obj 1163 1266 + 1;
#X obj 1160 1311 mod 12;
#X obj 1235 1378 tabread notas;
#X obj 1128 1364 tabread human;
#X obj 1122 1525 pack f f;
#X obj 1131 1570 tabwrite midiNotes;
#X obj 1143 1195 bng 15 250 50 0 empty empty empty 0 -6 0 10 #fcfcfc #000000 #000000;
#X msg 1225 1490 0;
#X obj 1260 1333 t b b;
#X obj 1169 1413 ==;
#X obj 1078 1435 select 1;
#X text 918 928;
#X text 19 45 presionar para subir un audio;
#X text 208 456 presionar para crear el archivo;
#X text 18 485 presionar para escribir en el archivo;
#X text 176 498 presionar para terminar la grabacion del archivo;
#X text 246 628 presionar para generar el grafico;
#X text 67 263 presionar para que se reproduzca el sonido;
#X text 16 576 presionar para que se reproduzca el sonido;
#X text 699 222 presionar para capturar la nota cantada;
#X text 720 582 presionar: Q W E R T Y U do re mi fa sol la si;
#X text 702 1014 presionar para escuchar las notas tocadas;
#X connect 0 0 4 0;
#X connect 2 0 0 0;
#X connect 4 0 3 0;
#X connect 6 0 7 0;
#X connect 7 0 5 0;
#X connect 8 0 10 0;
#X connect 9 0 10 0;
#X connect 11 0 10 0;
#X connect 12 0 10 0;
#X connect 14 0 18 0;
#X connect 17 0 16 0;
#X connect 18 0 13 0;
#X connect 21 0 24 1;
#X connect 21 0 39 0;
#X connect 23 0 41 0;
#X connect 24 0 25 0;
#X connect 25 0 30 0;
#X connect 26 0 24 0;
#X connect 26 0 32 0;
#X connect 27 0 28 0;
#X connect 32 0 33 0;
#X connect 32 0 34 0;
#X connect 33 0 32 1;
#X connect 34 0 35 0;
#X connect 35 0 36 0;
#X connect 36 0 30 1;
#X connect 37 0 27 0;
#X connect 39 0 37 0;
#X connect 39 0 40 0;
#X connect 41 0 21 0;
#X connect 43 0 49 0;
#X connect 43 0 69 0;
#X connect 44 0 45 0;
#X connect 45 0 53 0;
#X connect 45 0 63 0;
#X connect 46 0 54 0;
#X connect 47 0 50 0;
#X connect 48 0 51 0;
#X connect 50 0 53 0;
#X connect 50 0 63 0;
#X connect 51 0 53 0;
#X connect 51 0 63 0;
#X connect 53 0 60 0;
#X connect 54 0 52 0;
#X connect 55 0 56 0;
#X connect 56 0 54 1;
#X connect 58 0 65 0;
#X connect 59 0 58 0;
#X connect 60 0 61 0;
#X connect 61 0 46 0;
#X connect 63 0 64 0;
#X connect 65 0 61 1;
#X connect 66 0 65 1;
#X connect 67 0 65 1;
#X connect 68 0 65 1;
#X connect 69 0 44 0;
#X connect 69 1 47 0;
#X connect 69 2 48 0;
#X connect 69 3 70 0;
#X connect 69 4 72 0;
#X connect 69 5 74 0;
#X connect 69 6 76 0;
#X connect 70 0 71 0;
#X connect 71 0 63 0;
#X connect 71 0 53 0;
#X connect 72 0 73 0;
#X connect 73 0 63 0;
#X connect 73 0 53 0;
#X connect 74 0 75 0;
#X connect 75 0 63 0;
#X connect 75 0 53 0;
#X connect 76 0 77 0;
#X connect 77 0 63 0;
#X connect 77 0 53 0;
#X connect 79 0 92 0;
#X connect 80 0 85 0;
#X connect 81 0 85 0;
#X connect 82 0 85 0;
#X connect 85 0 86 0;
#X connect 86 0 84 0;
#X connect 87 0 84 1;
#X connect 88 0 87 0;
#X connect 89 0 88 0;
#X connect 90 0 89 0;
#X connect 90 0 91 0;
#X connect 91 0 90 1;
#X connect 92 0 80 0;
#X connect 92 0 90 0;
#X connect 92 1 81 0;
#X connect 92 1 90 0;
#X connect 92 2 82 0;
#X connect 92 2 90 0;
#X connect 92 3 90 0;
#X connect 92 3 93 0;
#X connect 92 4 90 0;
#X connect 92 4 94 0;
#X connect 92 5 90 0;
#X connect 92 5 95 0;
#X connect 92 6 90 0;
#X connect 92 6 96 0;
#X connect 92 7 90 0;
#X connect 93 0 85 0;
#X connect 94 0 85 0;
#X connect 95 0 85 0;
#X connect 96 0 85 0;
#X connect 97 0 98 0;
#X connect 98 0 106 0;
#X connect 99 0 100 0;
#X connect 100 0 101 0;
#X connect 101 0 102 0;
#X connect 101 0 103 0;
#X connect 102 0 109 0;
#X connect 102 0 104 1;
#X connect 103 0 109 1;
#X connect 104 0 105 0;
#X connect 106 0 99 0;
#X connect 107 0 104 1;
#X connect 109 0 110 0;
#X connect 110 0 104 0;
#X connect 110 0 107 0;
